<svg xmlns="http://www.w3.org/2000/svg" viewBox="0 0 900 720" role="img" aria-labelledby="t d">
<title id="t">A family space station around a luminous planet</title><desc id="d">Abstract orbital paths, a planet, stars and small exploration beacons.</desc>
<defs><radialGradient id="bg"><stop stop-color="#1d295f"/><stop offset=".5" stop-color="#0e1434"/><stop offset="1" stop-color="#070a1c"/></radialGradient><radialGradient id="pl" cx="34%" cy="28%"><stop stop-color="#eaffff"/><stop offset=".16" stop-color="#7defff"/><stop offset=".52" stop-color="#7c65ff"/><stop offset="1" stop-color="#2a1557"/></radialGradient><linearGradient id="orb"><stop stop-color="#ff7cb8"/><stop offset=".5" stop-color="#ffd67a"/><stop offset="1" stop-color="#72e8ff"/></linearGradient><filter id="glow"><feGaussianBlur stdDeviation="12" result="b"/><feMerge><feMergeNode in="b"/><feMergeNode in="SourceGraphic"/></feMerge></filter></defs>
<rect width="900" height="720" rx="64" fill="url(#bg)"/><g opacity=".7" fill="#fff"><circle cx="80" cy="88" r="2"/><circle cx="169" cy="133" r="3"/><circle cx="806" cy="116" r="2"/><circle cx="742" cy="225" r="4"/><circle cx="135" cy="574" r="2"/><circle cx="803" cy="601" r="3"/><circle cx="562" cy="77" r="2"/><circle cx="310" cy="649" r="3"/></g>
<ellipse cx="451" cy="375" rx="342" ry="128" fill="none" stroke="#72e8ff" stroke-opacity=".25" stroke-width="3" transform="rotate(-14 451 375)"/><ellipse cx="451" cy="375" rx="284" ry="95" fill="none" stroke="url(#orb)" stroke-width="11" stroke-linecap="round" transform="rotate(-14 451 375)" filter="url(#glow)"/><circle cx="451" cy="375" r="144" fill="url(#pl)" filter="url(#glow)"/><path d="M363 337c38-45 107-70 168-43M352 405c60 35 156 45 214 4" fill="none" stroke="#fff" stroke-opacity=".13" stroke-width="12" stroke-linecap="round"/>
<g transform="translate(682 235)"><rect width="118" height="78" rx="20" fill="#0a0f2c" stroke="#fff" stroke-opacity=".18"/><circle cx="34" cy="39" r="12" fill="#71e5b3"/><path d="M57 30h39M57 46h29" stroke="#e8ecff" stroke-width="6" stroke-linecap="round"/></g>
<g transform="translate(105 461)"><rect width="155" height="92" rx="24" fill="#0a0f2c" stroke="#fff" stroke-opacity=".18"/><path d="M30 59l25-28 21 21 18-16 30 31" fill="none" stroke="#ff9fcf" stroke-width="7" stroke-linecap="round" stroke-linejoin="round"/><circle cx="119" cy="29" r="8" fill="#ffd67a"/></g>
<circle cx="235" cy="224" r="17" fill="#ffd67a" filter="url(#glow)"/><circle cx="723" cy="486" r="13" fill="#ff7cb8" filter="url(#glow)"/>
</svg>
